<?xml version="1.0" standalone="no"?>
<!DOCTYPE svg PUBLIC "-//W3C//DTD SVG 20010904//EN"
 "http://www.w3.org/TR/2001/REC-SVG-20010904/DTD/svg10.dtd">
<svg version="1.0" xmlns="http://www.w3.org/2000/svg"
 width="480.000000pt" height="290.000000pt" viewBox="0 0 480.000000 290.000000"
 preserveAspectRatio="xMidYMid meet">

<g transform="translate(0.000000,290.000000) scale(0.100000,-0.100000)"
fill="#000000" stroke="none">
<path d="M2440 2568 c0 -87 5 -86 14 5 4 43 3 67 -4 67 -6 0 -10 -29 -10 -72z"/>
<path d="M2683 2515 c-18 -24 -32 -54 -32 -67 1 -21 2 -21 6 -3 3 11 18 36 33
55 35 46 43 60 33 60 -4 -1 -23 -21 -40 -45z"/>
<path d="M2187 2498 c11 -13 32 -36 46 -53 15 -16 27 -26 27 -22 0 13 -73 97
-84 97 -5 0 0 -10 11 -22z"/>
<path d="M2319 2418 c-118 -98 -139 -166 -84 -282 69 -144 263 -193 373 -92
55 50 82 169 57 253 -34 114 -87 155 -210 163 l-80 5 -56 -47z m202 22 c46
-13 114 -84 128 -136 31 -110 -8 -228 -89 -272 -82 -45 -170 -33 -248 33 -46
40 -92 124 -92 169 0 48 38 112 95 163 50 44 58 48 111 50 32 2 75 -2 95 -7z"/>
<path d="M2355 2330 c-11 -17 5 -32 21 -19 7 6 11 15 8 20 -7 12 -21 11 -29
-1z"/>
<path d="M2493 2324 c-7 -19 2 -28 22 -21 19 8 19 23 0 31 -9 3 -18 -1 -22
-10z"/>
<path d="M2488 2224 c-35 -36 -88 -37 -123 -4 -26 25 -34 16 -12 -14 29 -39
120 -35 155 7 25 29 8 38 -20 11z"/>
<path d="M2080 2405 c0 -6 87 -50 118 -59 13 -5 22 -3 22 3 0 6 -6 11 -14 11
-7 0 -39 11 -70 25 -31 14 -56 23 -56 20z"/>
<path d="M2808 2362 c-32 -14 -58 -29 -58 -33 0 -5 26 3 58 18 68 33 66 32 61
36 -2 2 -30 -7 -61 -21z"/>
<path d="M2710 2136 c0 -7 72 -56 82 -56 20 0 5 18 -29 35 -54 28 -53 27 -53
21z"/>
<path d="M2149 2097 c-20 -18 -51 -45 -70 -60 l-34 -28 34 18 c40 22 118 89
111 96 -3 3 -21 -9 -41 -26z"/>
<path d="M2265 1920 c-26 -34 -44 -64 -41 -67 3 -4 7 -4 9 -2 1 2 22 30 46 62
57 78 47 83 -14 7z"/>
<path d="M2540 1948 c0 -9 4 -19 9 -23 6 -3 13 -25 17 -50 3 -24 13 -50 22
-57 14 -11 15 -10 8 7 -5 11 -12 34 -16 50 -9 41 -39 95 -40 73z"/>
<path d="M3152 1825 c-12 -9 -25 -30 -30 -48 -8 -29 -11 -31 -48 -29 -82 6
-145 -77 -98 -129 16 -18 16 -19 -17 -20 -26 -1 -29 -2 -13 -7 20 -7 21 -12
18 -97 -8 -160 -6 -153 -49 -190 -44 -38 -66 -43 -85 -20 -20 24 -3 31 22 9
l23 -19 -19 23 c-22 25 -46 29 -46 8 0 -21 28 -46 51 -46 11 0 42 20 68 45 47
44 50 45 113 45 l66 0 34 -57 c31 -52 37 -58 67 -58 21 0 38 7 45 17 16 26 -2
34 -36 15 -36 -21 -39 -19 -71 36 -25 41 -26 50 -22 161 2 65 5 120 7 122 2 2
23 -4 47 -12 24 -8 49 -13 55 -11 6 2 -5 7 -24 12 -19 4 -48 15 -65 23 -19 10
-50 15 -82 13 -70 -3 -95 11 -91 52 3 28 6 32 31 29 15 -2 43 2 62 8 64 21
100 -16 58 -62 -9 -10 -12 -18 -6 -18 20 0 35 47 28 88 -6 37 -3 43 34 82 23
24 41 45 41 47 0 10 -49 1 -68 -12z m-52 -229 c0 -3 -4 -8 -10 -11 -5 -3 -10
-1 -10 4 0 6 5 11 10 11 6 0 10 -2 10 -4z m-100 -80 c0 -3 -4 -8 -10 -11 -5
-3 -10 -1 -10 4 0 6 5 11 10 11 6 0 10 -2 10 -4z m37 -41 c-8 -17 -20 -25 -37
-25 -23 0 -23 1 10 25 19 13 36 24 37 25 0 0 -4 -11 -10 -25z m73 -15 c0 -5
-10 -10 -22 -9 -22 0 -22 1 -3 9 11 5 21 9 23 9 1 1 2 -3 2 -9z m0 -59 l0 -41
-75 0 c-41 0 -75 4 -75 9 0 4 5 21 10 38 10 29 13 30 75 32 l65 2 0 -40z m130
-146 c-7 -8 -17 -15 -22 -15 -6 0 -5 7 2 15 7 8 17 15 22 15 6 0 5 -7 -2 -15z"/>
<path d="M2323 1790 c-25 -15 -33 -27 -33 -49 0 -16 7 -34 15 -41 8 -7 15 -18
15 -24 0 -19 -157 -91 -193 -89 -25 1 -26 0 -7 -4 l24 -5 -24 -14 -25 -14 28
6 c23 5 26 4 21 -12 -3 -11 2 -6 11 9 10 17 41 40 78 57 52 26 63 28 75 16 12
-12 12 -17 -2 -38 -12 -18 -14 -35 -7 -75 4 -29 4 -58 0 -65 -12 -18 -11 -98
0 -98 6 0 2 -19 -8 -42 -10 -24 -21 -51 -25 -62 -6 -18 -7 -18 -26 -1 -21 19
-50 14 -50 -9 0 -16 40 -31 61 -24 7 2 24 33 38 69 18 44 32 65 46 67 11 2 26
11 33 20 11 15 14 15 22 2 7 -10 10 -11 10 -2 0 6 4 12 10 12 5 0 11 -39 12
-87 3 -86 4 -88 29 -91 33 -4 56 20 35 37 -11 9 -20 10 -35 1 -20 -10 -21 -8
-21 55 0 62 1 65 24 65 l24 0 -5 145 -4 146 50 -38 c34 -26 50 -46 52 -63 2
-24 2 -24 6 -2 3 13 15 27 29 32 33 13 30 16 -13 13 -32 -3 -45 3 -83 36 l-45
39 28 26 c35 32 34 50 -2 87 -25 25 -37 29 -83 29 -35 0 -64 -7 -85 -20z m132
-47 c63 6 73 -8 29 -42 -39 -31 -106 -37 -146 -14 -35 20 -50 53 -25 53 8 0
20 7 27 15 10 12 15 12 36 -2 18 -12 39 -14 79 -10z m-126 -254 c-13 -26 -19
-24 -19 6 0 17 4 23 15 19 11 -5 12 -11 4 -25z m136 -109 c3 -5 1 -10 -4 -10
-6 0 -11 5 -11 10 0 6 2 10 4 10 3 0 8 -4 11 -10z m-150 -10 c3 -5 1 -10 -4
-10 -6 0 -11 5 -11 10 0 6 2 10 4 10 3 0 8 -4 11 -10z"/>
<path d="M2365 1690 c3 -5 11 -10 16 -10 6 0 7 5 4 10 -3 6 -11 10 -16 10 -6
0 -7 -4 -4 -10z"/>
<path d="M1655 1766 c-17 -17 -38 -26 -67 -28 -30 -2 -43 -7 -43 -18 0 -11 12
-15 48 -15 26 0 47 -3 47 -7 0 -5 9 -17 20 -28 18 -18 18 -20 3 -20 -15 0 -15
-2 -4 -9 12 -8 12 -21 1 -84 -7 -41 -10 -81 -8 -88 3 -8 11 28 18 78 8 51 19
94 25 96 6 3 28 2 50 -2 l40 -6 -4 -80 c-1 -44 -5 -84 -9 -89 -3 -5 0 -6 6 -2
7 4 12 27 12 50 0 67 11 108 26 102 36 -15 49 -17 29 -6 -11 7 -31 19 -43 27
l-24 15 21 19 c12 11 21 24 21 29 0 6 19 7 45 3 37 -5 46 -3 51 12 10 24 -14
37 -59 31 -23 -2 -40 1 -45 8 -24 42 -120 49 -157 12z m132 -2 c17 -12 16 -13
-7 -14 -15 0 -32 6 -40 13 -12 10 -12 9 -1 -5 7 -10 26 -18 42 -18 22 0 29 -5
29 -20 0 -59 -99 -82 -146 -35 -31 31 -28 45 13 59 18 6 35 15 40 19 4 5 -5 3
-20 -2 -39 -15 -56 -13 -34 3 24 18 100 18 124 0z m107 -30 c24 -9 19 -24 -8
-24 -33 0 -57 10 -50 21 6 10 35 12 58 3z m-269 -14 c-3 -5 -22 -10 -41 -10
-19 0 -34 5 -34 10 0 6 18 10 41 10 24 0 38 -4 34 -10z"/>
<path d="M1719 1687 c18 -23 51 -22 51 1 0 14 -2 15 -10 2 -8 -13 -12 -13 -32
-1 -21 13 -22 13 -9 -2z"/>
<path d="M2780 1643 c0 -6 5 -15 10 -18 21 -13 9 -27 -19 -23 -17 2 -28 1 -25
-4 3 -4 17 -8 31 -8 26 0 26 0 7 -21 -19 -22 -19 -22 4 -10 12 6 22 16 22 21
0 5 8 11 18 13 12 3 13 5 2 6 -9 0 -23 13 -32 29 -10 15 -18 22 -18 15z"/>
<path d="M1608 1633 c6 -2 18 -2 25 0 6 3 1 5 -13 5 -14 0 -19 -2 -12 -5z"/>
<path d="M3027 1628 c6 -11 31 -10 37 1 3 5 -5 8 -18 7 -13 0 -22 -4 -19 -8z"/>
<path d="M1428 1623 c7 -3 16 -2 19 1 4 3 -2 6 -13 5 -11 0 -14 -3 -6 -6z"/>
<path d="M1535 1620 c-25 -11 1 -11 35 0 20 6 21 8 5 8 -11 0 -29 -3 -40 -8z"/>
<path d="M1460 1610 c0 -5 5 -10 11 -10 6 0 8 -8 5 -17 -5 -16 -4 -15 9 1 8
10 12 23 9 27 -7 12 -34 11 -34 -1z"/>
<path d="M3288 1583 l-26 -28 26 -20 c19 -13 23 -14 14 -3 -11 14 -10 17 10
21 19 4 18 4 -6 6 l-29 1 23 25 c13 14 21 25 19 25 -3 0 -17 -12 -31 -27z"/>
<path d="M1902 1583 c20 -10 42 -27 47 -38 9 -19 10 -19 10 -1 1 12 6 16 16
12 8 -3 15 -3 15 0 0 2 -10 9 -22 13 l-23 9 25 11 25 12 -25 -7 c-33 -8 -61
-9 -85 -1 -11 4 -3 -1 17 -10z"/>
<path d="M2590 1566 c0 -2 9 -6 20 -9 11 -3 18 -1 14 4 -5 9 -34 13 -34 5z"/>
<path d="M1643 1395 c0 -33 2 -51 4 -40 3 18 10 20 58 17 l55 -4 0 -74 c0 -99
18 -136 63 -132 47 4 43 32 -5 36 -48 4 -53 20 -46 151 3 53 2 83 -1 66 -6
-29 -8 -30 -61 -30 -55 0 -55 0 -61 35 -5 27 -6 21 -6 -25z"/>
<path d="M1619 1271 l-12 -61 -38 6 c-31 5 -40 3 -45 -10 -4 -9 -4 -20 0 -23
11 -11 69 -5 82 9 14 14 39 126 30 135 -2 3 -10 -22 -17 -56z"/>
<path d="M1008 923 c-12 -14 -53 -232 -61 -323 -3 -32 14 -101 23 -95 14 9 46
85 54 129 7 35 9 37 33 31 14 -3 38 -8 53 -12 30 -6 39 -24 41 -83 0 -19 4
-44 8 -55 7 -18 9 -18 24 6 36 54 54 134 61 266 7 125 6 132 -13 142 -24 13
-49 5 -54 -17 -2 -10 -5 -53 -6 -97 -1 -44 -6 -84 -11 -89 -4 -4 -33 -1 -64 8
-50 15 -56 19 -51 39 19 91 24 141 14 154 -15 18 -33 16 -51 -4z"/>
<path d="M1312 906 c-15 -25 -19 -45 -15 -78 3 -26 0 -55 -6 -67 -7 -12 -14
-73 -17 -136 l-5 -115 28 0 c15 0 53 -5 86 -12 55 -11 60 -11 73 7 13 17 11
22 -13 47 -15 15 -36 28 -47 28 -38 0 -49 15 -42 54 6 30 11 36 34 37 94 5
132 18 132 43 0 23 -22 33 -84 39 -32 3 -59 7 -61 9 -2 2 0 21 4 43 l6 40 60
8 c72 10 88 26 62 61 -11 15 -30 19 -95 22 l-81 3 -19 -33z"/>
<path d="M1592 934 c-25 -12 -37 -51 -44 -149 -5 -55 -9 -111 -10 -125 -4 -47
13 -164 24 -171 18 -11 26 -2 39 41 13 41 23 50 32 27 7 -20 246 -159 266
-155 51 10 -2 86 -97 140 -30 17 -76 53 -104 80 l-50 49 44 28 c68 43 98 85
98 136 0 42 -3 46 -44 70 -42 25 -127 41 -154 29z m79 -97 c-1 -4 -1 -11 -1
-15 0 -5 -12 -14 -26 -21 -25 -11 -26 -10 -20 11 3 13 6 28 6 35 0 8 7 10 21
5 11 -5 20 -11 20 -15z"/>
<path d="M1958 926 c-42 -10 -52 -18 -83 -65 -48 -76 -65 -133 -60 -212 4 -82
22 -119 69 -144 l36 -20 45 24 c94 50 175 164 175 245 -1 60 -32 120 -81 155
-23 17 -45 30 -48 30 -3 -1 -27 -6 -53 -13z m61 -130 c34 -36 30 -78 -13 -140
-59 -86 -67 -84 -81 27 -6 42 -3 52 26 92 18 25 35 45 39 45 4 0 17 -11 29
-24z"/>
<path d="M2405 927 c-45 -9 -53 -15 -82 -58 -59 -87 -73 -139 -63 -230 6 -68
12 -85 35 -109 36 -37 67 -44 108 -24 84 44 148 118 173 200 24 80 -21 181
-96 218 -18 9 -39 9 -75 3z m55 -127 c33 -33 35 -64 5 -119 -30 -55 -71 -98
-82 -87 -4 4 -9 38 -11 76 -4 63 -2 72 24 109 16 22 32 41 37 41 4 0 16 -9 27
-20z"/>
<path d="M2664 929 c-4 -7 -10 -45 -14 -86 -5 -45 -14 -80 -24 -92 -17 -18
-21 -58 -8 -78 4 -6 5 -44 2 -83 -4 -60 -3 -74 13 -88 33 -29 51 -5 58 77 3
39 10 76 15 81 6 6 36 5 84 -4 41 -8 78 -12 82 -10 13 8 9 50 -4 62 -7 5 -34
13 -61 17 -26 4 -58 16 -72 27 -21 16 -23 22 -13 44 15 31 41 38 101 24 55
-12 67 -8 67 23 0 35 -12 45 -65 58 -28 6 -67 18 -88 25 -46 17 -64 18 -73 3z"/>
<path d="M3054 928 c-4 -6 -7 -37 -6 -67 3 -77 -17 -230 -34 -265 -17 -36 -18
-92 -1 -99 19 -7 172 20 205 37 35 18 64 56 80 105 20 57 15 103 -16 152 -35
54 -115 132 -145 141 -37 10 -75 9 -83 -4z m113 -118 c42 -25 60 -55 68 -112
6 -42 4 -50 -18 -72 -30 -30 -66 -33 -95 -8 -19 16 -20 22 -9 115 6 53 13 97
16 97 3 0 20 -9 38 -20z"/>
<path d="M3472 914 c-19 -15 -39 -46 -52 -82 -12 -31 -30 -65 -41 -75 -10 -10
-19 -28 -19 -40 -1 -12 -9 -47 -20 -77 -24 -67 -25 -113 -4 -131 23 -19 46 -1
64 52 9 24 18 49 20 55 3 6 21 14 41 18 l37 6 -5 -43 c-4 -29 0 -54 10 -73
l16 -29 27 60 c39 84 45 207 15 283 -12 30 -19 57 -16 62 3 4 -6 15 -18 23
-22 14 -26 13 -55 -9z m23 -181 c5 -20 3 -23 -19 -23 -24 0 -24 2 -14 31 11
32 21 29 33 -8z"/>
<path d="M3629 910 l-34 -29 48 -41 c26 -23 47 -48 47 -56 0 -8 7 -25 16 -38
14 -22 14 -30 0 -84 -19 -72 -20 -125 -4 -152 11 -18 14 -16 36 21 28 48 38
80 56 181 10 51 23 88 39 110 38 49 51 87 32 94 -22 9 -73 -15 -96 -45 l-21
-26 -43 47 -42 47 -34 -29z"/>
</g>
</svg>
